<?xml version="1.0" standalone="no"?>
<!DOCTYPE svg PUBLIC "-//W3C//DTD SVG 20010904//EN"
 "http://www.w3.org/TR/2001/REC-SVG-20010904/DTD/svg10.dtd">
<svg version="1.0" xmlns="http://www.w3.org/2000/svg"
 width="260.000000pt" height="260.000000pt" viewBox="0 0 260.000000 260.000000"
 preserveAspectRatio="xMidYMid meet">
<metadata>
Created by potrace 1.11, written by Peter Selinger 2001-2013
</metadata>
<g transform="translate(0.000000,260.000000) scale(0.100000,-0.100000)"
fill="#000000" stroke="none">
<path d="M1295 2275 c-22 -9 -46 -17 -53 -19 -31 -6 -37 -28 -37 -131 1 -57
-3 -101 -7 -99 -4 3 -8 14 -8 24 0 51 -114 127 -173 115 -17 -4 -42 -13 -55
-21 -12 -8 -28 -12 -34 -8 -7 4 -8 3 -4 -4 4 -7 1 -12 -7 -12 -37 0 -35 -96 4
-273 18 -78 48 -223 68 -322 33 -166 38 -180 59 -183 14 -2 25 3 29 14 7 20
-17 154 -83 450 -43 196 -53 271 -35 260 4 -3 17 1 27 9 22 17 80 20 89 4 4
-6 13 -8 21 -5 9 3 11 0 7 -11 -5 -12 -3 -14 8 -8 8 4 11 5 7 0 -4 -4 -3 -13
2 -20 5 -6 34 -112 65 -236 30 -123 58 -237 63 -253 10 -39 37 -56 56 -36 12
12 14 27 6 80 -19 140 -52 550 -46 575 4 17 11 23 19 18 7 -4 6 0 -2 11 -19
23 -4 36 49 43 46 6 123 -23 99 -38 -6 -4 -8 -12 -5 -18 4 -6 11 -9 16 -6 5 3
11 -14 14 -37 10 -78 46 -512 46 -554 0 -45 18 -68 47 -62 21 4 23 20 48 353
9 126 21 235 26 241 5 6 5 14 1 18 -4 4 -2 7 3 5 15 -3 45 12 45 22 0 6 -9 5
-20 -1 -16 -8 -18 -8 -14 4 11 28 124 33 124 6 0 -5 -6 -7 -14 -4 -8 3 -17 1
-21 -5 -3 -6 -1 -11 6 -11 7 0 21 -8 32 -17 15 -13 19 -14 13 -3 -4 8 0 6 8
-4 20 -25 20 -42 -5 -339 -11 -136 -18 -255 -15 -263 3 -9 15 -14 28 -12 26 4
26 3 68 221 32 168 47 209 89 244 20 17 22 22 9 23 -9 0 -19 -5 -21 -10 -3 -6
-4 -5 -3 2 5 24 52 43 82 33 42 -15 44 -36 2 -24 -47 13 -48 11 -4 -11 21 -11
42 -18 45 -16 9 6 13 -28 13 -114 0 -43 -15 -159 -35 -270 -20 -107 -38 -211
-40 -230 l-3 -35 -50 3 c-193 10 -248 7 -326 -22 l-78 -28 -67 23 c-51 17 -90
23 -155 22 -84 0 -91 -2 -177 -45 -50 -26 -87 -40 -84 -32 11 30 -8 11 -34
-33 -66 -112 -16 -305 118 -457 43 -49 193 -169 284 -225 56 -35 81 -45 125
-48 50 -4 60 -1 114 35 150 100 244 231 324 453 30 83 42 105 58 107 17 2 23
-4 28 -29 24 -123 -35 -278 -161 -420 -71 -79 -175 -155 -195 -143 -4 3 -8 0
-8 -7 0 -7 -3 -10 -6 -7 -3 3 -29 -1 -57 -8 -75 -21 -272 -30 -338 -15 -67 15
-159 51 -159 61 0 4 -18 17 -41 28 -22 11 -65 42 -96 69 -31 26 -60 48 -65 48
-4 0 -15 10 -23 22 -9 13 -21 23 -27 23 -6 0 -29 16 -52 35 -22 20 -54 47 -71
61 -16 13 -68 59 -114 102 -115 106 -134 148 -83 177 25 15 25 16 4 11 -23 -4
-23 -4 -6 15 9 10 27 19 40 19 41 0 138 -60 198 -123 32 -34 55 -55 51 -47 -4
8 4 2 17 -13 18 -22 30 -28 53 -25 42 4 46 39 8 67 -64 49 -79 61 -108 85 -51
44 -162 97 -203 97 -51 0 -110 -23 -129 -51 -27 -39 -21 -101 16 -159 18 -28
48 -64 66 -80 19 -16 32 -31 29 -33 -2 -3 6 -13 18 -24 21 -19 21 -19 15 1 -7
20 -7 20 8 1 8 -11 15 -23 15 -28 0 -4 6 -8 14 -8 7 0 20 -8 27 -17 13 -17 13
-17 -6 -3 -20 15 -20 14 -1 -8 20 -23 32 -30 21 -12 -3 5 -1 10 4 10 6 0 11
-4 11 -10 0 -5 4 -9 10 -7 5 1 26 -16 47 -39 21 -22 34 -33 28 -24 -5 9 3 2
20 -14 16 -17 31 -30 32 -28 2 2 16 -7 31 -19 l27 -21 -29 17 c-16 9 -25 12
-22 6 4 -6 21 -18 38 -27 20 -10 28 -11 23 -3 -5 8 -4 10 3 5 7 -4 12 -14 12
-22 0 -8 3 -13 8 -12 12 4 54 -23 47 -30 -3 -3 17 -16 45 -29 28 -12 49 -27
46 -32 -4 -5 -1 -13 5 -17 8 -5 9 -3 4 6 -5 8 -3 11 6 8 8 -3 13 -9 12 -14 -1
-5 8 -9 20 -10 12 -1 58 -11 101 -23 98 -26 318 -30 405 -6 30 8 59 11 64 8 6
-3 7 -2 4 3 -3 6 7 15 23 21 21 8 28 8 26 -1 -2 -6 -1 -8 1 -3 3 4 9 5 13 2 5
-3 12 0 16 6 4 8 3 9 -4 5 -7 -4 -12 -2 -12 4 0 6 8 10 18 9 23 -3 52 10 52
24 0 5 -10 2 -22 -9 l-23 -19 19 22 c10 13 22 21 26 18 9 -6 80 43 80 56 0 6
16 26 35 45 19 18 35 38 35 43 0 5 4 11 9 13 19 7 83 142 101 214 35 136 21
249 -44 368 l-34 61 33 165 c71 354 80 494 37 562 -12 18 -22 30 -22 25 0 -4
-13 -1 -30 8 -42 22 -92 19 -146 -10 -26 -14 -49 -25 -50 -25 -2 0 -4 20 -4
44 0 23 -5 58 -11 77 -12 36 -39 72 -47 64 -3 -2 -14 2 -26 10 -27 20 -110 19
-153 -1 -48 -24 -63 -51 -78 -146 -7 -46 -13 -78 -14 -73 -1 6 -6 53 -11 106
-12 122 -21 143 -75 164 -64 24 -106 27 -150 10z m-208 -170 c2 -6 -17 -10
-44 -10 -27 0 -57 -4 -68 -9 -17 -6 -16 -4 4 14 18 15 35 20 64 18 22 -2 42
-8 44 -13z m958 -945 c3 -5 1 -10 -4 -10 -6 0 -11 5 -11 10 0 6 2 10 4 10 3 0
8 -4 11 -10z"/>
<path d="M1292 2211 c-8 -5 16 -8 58 -8 42 0 66 3 58 8 -7 5 -33 9 -58 9 -25
0 -51 -4 -58 -9z"/>
<path d="M628 1093 c7 -3 16 -2 19 1 4 3 -2 6 -13 5 -11 0 -14 -3 -6 -6z"/>
<path d="M706 1065 c10 -8 23 -15 28 -15 6 0 1 7 -10 15 -10 8 -23 15 -28 15
-6 0 -1 -7 10 -15z"/>
<path d="M750 1046 c0 -4 7 -14 15 -22 8 -9 15 -11 15 -6 0 5 -7 15 -15 22 -8
7 -15 9 -15 6z"/>
<path d="M750 721 c0 -5 7 -12 16 -15 14 -5 15 -4 4 9 -14 17 -20 19 -20 6z"/>
<path d="M1170 416 c14 -8 27 -12 29 -10 6 6 -1 11 -29 18 l-25 7 25 -15z"/>
</g>
</svg>
